<svg xmlns="http://www.w3.org/2000/svg" xmlns:xlink="http://www.w3.org/1999/xlink" width="500" zoomAndPan="magnify" viewBox="0 0 375 374.999991" height="500" preserveAspectRatio="xMidYMid meet" version="1.0"><defs><g/><clipPath id="39311b8136"><path d="M 17.46875 17.582031 L 359.46875 17.582031 L 359.46875 361 L 17.46875 361 Z M 17.46875 17.582031 " clip-rule="nonzero"/></clipPath><clipPath id="54c7523994"><path d="M 28.71875 17.582031 L 348.148438 17.582031 C 351.132812 17.582031 353.992188 18.769531 356.105469 20.878906 C 358.214844 22.988281 359.398438 25.847656 359.398438 28.832031 L 359.398438 349.660156 C 359.398438 352.644531 358.214844 355.503906 356.105469 357.617188 C 353.992188 359.726562 351.132812 360.910156 348.148438 360.910156 L 28.71875 360.910156 C 22.503906 360.910156 17.46875 355.875 17.46875 349.660156 L 17.46875 28.832031 C 17.46875 22.621094 22.503906 17.582031 28.71875 17.582031 Z M 28.71875 17.582031 " clip-rule="nonzero"/></clipPath></defs><rect x="-37.5" width="450" fill="#ffffff" y="-37.499999" height="449.999989" fill-opacity="1"/><rect x="-37.5" width="450" fill="#ffffff" y="-37.499999" height="449.999989" fill-opacity="1"/><g clip-path="url(#39311b8136)"><g clip-path="url(#54c7523994)"><path stroke-linecap="butt" transform="matrix(0.75, 0, 0, 0.75, 17.469042, 17.5828)" fill="none" stroke-linejoin="miter" d="M 14.999612 -0.00102549 L 440.90589 -0.00102549 C 444.885057 -0.00102549 448.697557 1.582308 451.515266 4.394808 C 454.327766 7.207308 455.905891 11.019809 455.905891 14.998975 L 455.905891 442.769837 C 455.905891 446.749004 454.327766 450.561504 451.515266 453.379213 C 448.697557 456.191713 444.885057 457.769838 440.90589 457.769838 L 14.999612 457.769838 C 6.713153 457.769838 -0.000388684 451.056296 -0.000388684 442.769837 L -0.000388684 14.998975 C -0.000388684 6.717725 6.713153 -0.00102549 14.999612 -0.00102549 Z M 14.999612 -0.00102549 " stroke="#951e38" stroke-width="6" stroke-opacity="1" stroke-miterlimit="4"/></g></g><g fill="#951e38" fill-opacity="1"><g transform="translate(53.250001, 147.600283)"><g><path d="M 2.953125 0 L 2.953125 -2.65625 C 6.410156 -2.894531 8.578125 -3.25 9.453125 -3.71875 C 10.335938 -4.1875 10.78125 -5.226562 10.78125 -6.84375 L 10.78125 -44.703125 C 10.78125 -46.347656 10.050781 -47.535156 8.59375 -48.265625 C 7.132812 -49.003906 5.253906 -49.457031 2.953125 -49.625 L 2.953125 -52.25 L 26.46875 -52.25 L 26.46875 -49.625 C 23.15625 -49.382812 21.019531 -48.953125 20.0625 -48.328125 C 19.101562 -47.703125 18.625 -46.628906 18.625 -45.109375 L 18.625 -7.328125 C 18.625 -6.046875 19.039062 -5.019531 19.875 -4.25 C 20.71875 -3.476562 22.914062 -2.945312 26.46875 -2.65625 L 26.46875 0 Z M 2.953125 0 "/></g></g></g><g fill="#951e38" fill-opacity="1"><g transform="translate(88.773615, 147.600283)"><g><path d="M 51.8125 -49.625 C 48.25 -49.257812 45.867188 -47.898438 44.671875 -45.546875 C 43.484375 -43.191406 37.316406 -27.789062 26.171875 0.65625 L 23.15625 0.65625 L 6.078125 -44.921875 C 4.828125 -47.796875 2.320312 -49.363281 -1.4375 -49.625 L -1.4375 -52.25 L 20.21875 -52.25 L 20.21875 -49.625 C 15.84375 -49.332031 13.65625 -48.671875 13.65625 -47.640625 C 13.65625 -46.929688 18.148438 -34.671875 27.140625 -10.859375 C 30.253906 -18.367188 33.03125 -25.300781 35.46875 -31.65625 C 37.914062 -38.019531 39.304688 -41.804688 39.640625 -43.015625 C 39.972656 -44.234375 40.140625 -45.359375 40.140625 -46.390625 C 40.140625 -48.054688 37.546875 -49.132812 32.359375 -49.625 L 32.359375 -52.25 L 51.8125 -52.25 Z M 51.8125 -49.625 "/></g></g></g><g fill="#951e38" fill-opacity="1"><g transform="translate(145.171698, 147.600283)"><g><path d="M 48.421875 -49.625 C 47.015625 -49.476562 45.679688 -49.03125 44.421875 -48.28125 C 43.160156 -47.539062 41.691406 -46.003906 40.015625 -43.671875 C 38.347656 -41.335938 35.972656 -37.523438 32.890625 -32.234375 C 29.816406 -26.941406 28.039062 -23.722656 27.5625 -22.578125 C 27.082031 -21.441406 26.84375 -19.796875 26.84375 -17.640625 L 26.84375 -7.6875 C 26.84375 -6.289062 27.3125 -5.1875 28.25 -4.375 C 29.195312 -3.570312 31.515625 -3 35.203125 -2.65625 L 35.203125 0 L 10.78125 0 L 10.78125 -2.65625 C 14.394531 -2.894531 16.664062 -3.285156 17.59375 -3.828125 C 18.53125 -4.367188 19 -5.535156 19 -7.328125 L 19 -20 C 19 -20.832031 16.921875 -25.128906 12.765625 -32.890625 C 8.617188 -40.660156 5.878906 -45.335938 4.546875 -46.921875 C 3.210938 -48.503906 1.171875 -49.40625 -1.578125 -49.625 L -1.578125 -52.25 L 20.65625 -52.25 L 20.65625 -49.625 C 16.09375 -49.40625 13.8125 -48.816406 13.8125 -47.859375 C 13.8125 -47.171875 17.628906 -39.921875 25.265625 -26.109375 C 33.210938 -38.867188 37.1875 -45.800781 37.1875 -46.90625 C 37.1875 -47.644531 36.75 -48.226562 35.875 -48.65625 C 35.007812 -49.082031 33.128906 -49.40625 30.234375 -49.625 L 30.234375 -52.25 L 48.421875 -52.25 Z M 48.421875 -49.625 "/></g></g></g><g fill="#951e38" fill-opacity="1"><g transform="translate(53.250001, 227.100278)"><g><path d="M 3.46875 0 L 3.46875 -2.65625 C 6.40625 -2.875 8.332031 -3.289062 9.25 -3.90625 C 10.175781 -4.519531 10.640625 -5.585938 10.640625 -7.109375 L 10.640625 -44.625 C 10.640625 -47.59375 8.34375 -49.257812 3.75 -49.625 L 3.75 -52.25 L 27.90625 -52.25 C 32.28125 -52.25 35.894531 -51.257812 38.75 -49.28125 C 41.613281 -47.300781 43.046875 -44.5 43.046875 -40.875 C 43.046875 -34.363281 38.929688 -30.140625 30.703125 -28.203125 L 30.703125 -27.90625 C 40.835938 -26.382812 45.90625 -21.804688 45.90625 -14.171875 C 45.90625 -9.898438 44.191406 -6.46875 40.765625 -3.875 C 37.347656 -1.289062 33.1875 0 28.28125 0 Z M 18.484375 -49.15625 L 18.484375 -29.125 L 23.15625 -29.125 C 30.539062 -29.125 34.234375 -32.796875 34.234375 -40.140625 C 34.234375 -46.242188 30.972656 -49.296875 24.453125 -49.296875 C 22.242188 -49.296875 20.253906 -49.25 18.484375 -49.15625 Z M 18.484375 -26.03125 L 18.484375 -7.625 C 18.484375 -4.507812 20.835938 -2.953125 25.546875 -2.953125 C 33.085938 -2.953125 36.859375 -7.144531 36.859375 -15.53125 C 36.859375 -18.769531 35.789062 -21.351562 33.65625 -23.28125 C 31.519531 -25.207031 28.597656 -26.171875 24.890625 -26.171875 C 22.015625 -26.171875 19.878906 -26.125 18.484375 -26.03125 Z M 18.484375 -26.03125 "/></g></g></g><g fill="#951e38" fill-opacity="1"><g transform="translate(108.654062, 227.100278)"><g><path d="M 34.90625 -8.5 C 31.519531 -2.164062 26.550781 1 20 1 C 14.539062 1 10.285156 -0.785156 7.234375 -4.359375 C 4.179688 -7.929688 2.65625 -12.640625 2.65625 -18.484375 C 2.65625 -23.640625 4.207031 -28.066406 7.3125 -31.765625 C 10.414062 -35.472656 14.382812 -37.328125 19.21875 -37.328125 C 24.007812 -37.328125 27.671875 -35.9375 30.203125 -33.15625 C 32.742188 -30.375 34.015625 -26.5625 34.015625 -21.71875 L 34.015625 -19.296875 L 9.9375 -19.296875 C 9.9375 -14.140625 10.984375 -10.148438 13.078125 -7.328125 C 15.179688 -4.503906 18.1875 -3.09375 22.09375 -3.09375 C 24.25 -3.09375 26.09375 -3.570312 27.625 -4.53125 C 29.164062 -5.488281 30.742188 -7.34375 32.359375 -10.09375 Z M 26.765625 -22.390625 C 26.765625 -30.484375 24.222656 -34.53125 19.140625 -34.53125 C 16.585938 -34.53125 14.453125 -33.453125 12.734375 -31.296875 C 11.015625 -29.140625 10.082031 -26.171875 9.9375 -22.390625 Z M 26.765625 -22.390625 "/></g></g></g><g fill="#951e38" fill-opacity="1"><g transform="translate(151.172648, 227.100278)"><g><path d="M 37.046875 -0.65625 C 34.492188 0.269531 32.503906 0.734375 31.078125 0.734375 C 27.222656 0.734375 24.953125 -1.019531 24.265625 -4.53125 L 24.046875 -4.53125 C 20.773438 -0.894531 16.859375 0.921875 12.296875 0.921875 C 9.566406 0.921875 7.328125 0.09375 5.578125 -1.5625 C 3.828125 -3.21875 2.953125 -5.410156 2.953125 -8.140625 C 2.953125 -11.179688 3.785156 -13.503906 5.453125 -15.109375 C 7.117188 -16.722656 9.988281 -18.203125 14.0625 -19.546875 C 19.882812 -21.460938 23.234375 -22.691406 24.109375 -23.234375 L 24.109375 -26.84375 C 24.109375 -28.957031 23.523438 -30.78125 22.359375 -32.3125 C 21.203125 -33.84375 19.476562 -34.609375 17.1875 -34.609375 C 14.832031 -34.609375 13.101562 -34.03125 12 -32.875 C 12 -32.257812 12.109375 -31.535156 12.328125 -30.703125 C 12.554688 -29.867188 12.671875 -28.988281 12.671875 -28.0625 C 12.671875 -27.101562 12.242188 -26.296875 11.390625 -25.640625 C 10.546875 -24.992188 9.507812 -24.671875 8.28125 -24.671875 C 5.925781 -24.671875 4.75 -26.066406 4.75 -28.859375 C 4.75 -31.046875 6.125 -33.003906 8.875 -34.734375 C 11.625 -36.460938 14.546875 -37.328125 17.640625 -37.328125 C 22.671875 -37.328125 26.164062 -36.335938 28.125 -34.359375 C 30.09375 -32.390625 31.078125 -29.378906 31.078125 -25.328125 L 30.859375 -7.1875 C 30.859375 -5.851562 31.171875 -4.867188 31.796875 -4.234375 C 32.421875 -3.597656 32.984375 -3.234375 33.484375 -3.140625 C 33.984375 -3.054688 35.171875 -3.015625 37.046875 -3.015625 Z M 24.1875 -20.140625 C 18.832031 -18.566406 15.1875 -16.945312 13.25 -15.28125 C 11.3125 -13.613281 10.34375 -11.539062 10.34375 -9.0625 C 10.34375 -5.132812 12.222656 -3.171875 15.984375 -3.171875 C 18.878906 -3.171875 21.539062 -4.582031 23.96875 -7.40625 Z M 24.1875 -20.140625 "/></g></g></g><g fill="#951e38" fill-opacity="1"><g transform="translate(195.274307, 227.100278)"><g><path d="M 29.78125 0.140625 L 29.203125 -0.375 L 29.203125 -4.96875 L 28.9375 -4.96875 C 25.425781 -1.039062 21.414062 0.921875 16.90625 0.921875 C 10.300781 0.921875 7 -3.175781 7 -11.375 L 7 -28.71875 C 7 -31.738281 5.09375 -33.320312 1.28125 -33.46875 L 1.28125 -35.90625 L 13.4375 -36.703125 L 13.953125 -36.1875 L 13.953125 -11.015625 C 13.953125 -8.554688 14.515625 -6.617188 15.640625 -5.203125 C 16.773438 -3.796875 18.226562 -3.09375 20 -3.09375 C 23.851562 -3.09375 26.894531 -4.875 29.125 -8.4375 L 29.125 -29.015625 C 29.125 -30.046875 28.800781 -30.972656 28.15625 -31.796875 C 27.519531 -32.617188 26.863281 -33.078125 26.1875 -33.171875 C 25.519531 -33.273438 24.203125 -33.375 22.234375 -33.46875 L 22.234375 -35.90625 L 35.453125 -36.703125 L 36.046875 -36.1875 L 36.046875 -7.40625 C 36.046875 -4.507812 37.875 -3.070312 41.53125 -3.09375 L 41.53125 -0.65625 Z M 29.78125 0.140625 "/></g></g></g><g fill="#951e38" fill-opacity="1"><g transform="translate(244.751049, 227.100278)"><g><path d="M 25.109375 -1.578125 C 21.578125 -0.0351562 18.3125 0.734375 15.3125 0.734375 C 9.769531 0.734375 7 -2.171875 7 -7.984375 L 7 -32.65625 L 0.4375 -32.65625 L 0.4375 -36.125 L 7.1875 -36.125 L 7.1875 -47.421875 L 13.875 -47.421875 L 13.875 -36.125 L 24.265625 -36.125 L 24.265625 -32.65625 L 13.953125 -32.65625 L 13.953125 -12.375 C 13.953125 -9.007812 14.332031 -6.71875 15.09375 -5.5 C 15.851562 -4.289062 17.4375 -3.6875 19.84375 -3.6875 C 21.925781 -3.6875 23.679688 -3.894531 25.109375 -4.3125 Z M 25.109375 -1.578125 "/></g></g></g><g fill="#951e38" fill-opacity="1"><g transform="translate(276.887636, 227.100278)"><g><path d="M 38.21875 -34.015625 C 37.382812 -33.898438 36.425781 -33.472656 35.34375 -32.734375 C 34.269531 -31.992188 33.5625 -31.332031 33.21875 -30.75 C 32.875 -30.175781 31.78125 -27.695312 29.9375 -23.3125 L 24.859375 -11.15625 C 21.390625 -2.78125 18.804688 3.09375 17.109375 6.46875 C 15.421875 9.84375 13.628906 12.332031 11.734375 13.9375 C 9.847656 15.539062 7.945312 16.34375 6.03125 16.34375 C 4.238281 16.34375 2.769531 15.921875 1.625 15.078125 C 0.488281 14.234375 -0.078125 13.160156 -0.078125 11.859375 C -0.078125 10.679688 0.234375 9.691406 0.859375 8.890625 C 1.484375 8.085938 2.328125 7.6875 3.390625 7.6875 C 5.492188 7.6875 7.40625 9.25 9.125 12.375 C 10.207031 11.8125 11.585938 10.226562 13.265625 7.625 C 14.953125 5.019531 16.285156 2.429688 17.265625 -0.140625 L 4.890625 -30.34375 C 4.085938 -32.132812 2.238281 -33.3125 -0.65625 -33.875 L -0.65625 -36.265625 L 15.828125 -36.265625 L 15.828125 -33.6875 C 13.054688 -33.519531 11.671875 -32.992188 11.671875 -32.109375 C 11.671875 -32.054688 11.734375 -31.882812 11.859375 -31.59375 L 12.21875 -30.453125 L 20.953125 -8.984375 L 28.34375 -27.0625 C 28.445312 -27.351562 28.582031 -27.6875 28.75 -28.0625 C 29.34375 -29.382812 29.640625 -30.414062 29.640625 -31.15625 C 29.640625 -32.40625 28.007812 -33.335938 24.75 -33.953125 L 24.75 -36.265625 L 38.21875 -36.265625 Z M 38.21875 -34.015625 "/></g></g></g><g fill="#951e38" fill-opacity="1"><g transform="translate(53.250001, 276.600275)"><g><path d="M 2.765625 0 L 2.765625 -19.484375 L 4.125 -19.484375 L 4.125 -1.28125 L 13.40625 -1.28125 L 13.40625 0 Z M 2.765625 0 "/></g></g></g><g fill="#951e38" fill-opacity="1"><g transform="translate(67.256309, 276.600275)"><g><path d="M 12.140625 -6.875 L 4.21875 -6.875 L 1.5 0 L 0 0 L 7.84375 -19.5625 L 8.703125 -19.5625 L 16.375 0 L 14.84375 0 Z M 4.71875 -8.109375 L 11.6875 -8.109375 L 9.03125 -15.125 C 8.8125 -15.675781 8.546875 -16.441406 8.234375 -17.421875 C 7.992188 -16.566406 7.734375 -15.789062 7.453125 -15.09375 Z M 4.71875 -8.109375 "/></g></g></g><g fill="#951e38" fill-opacity="1"><g transform="translate(83.63476, 276.600275)"><g><path d="M 13.515625 -5.03125 C 13.515625 -3.394531 12.914062 -2.101562 11.71875 -1.15625 C 10.53125 -0.207031 8.941406 0.265625 6.953125 0.265625 C 4.578125 0.265625 2.753906 0.00390625 1.484375 -0.515625 L 1.484375 -1.875 C 2.878906 -1.28125 4.664062 -0.984375 6.84375 -0.984375 C 8.445312 -0.984375 9.71875 -1.347656 10.65625 -2.078125 C 11.59375 -2.816406 12.0625 -3.78125 12.0625 -4.96875 C 12.0625 -5.707031 11.90625 -6.316406 11.59375 -6.796875 C 11.28125 -7.285156 10.769531 -7.726562 10.0625 -8.125 C 9.363281 -8.53125 8.335938 -8.960938 6.984375 -9.421875 C 4.992188 -10.109375 3.617188 -10.847656 2.859375 -11.640625 C 2.097656 -12.429688 1.71875 -13.492188 1.71875 -14.828125 C 1.71875 -16.273438 2.285156 -17.457031 3.421875 -18.375 C 4.566406 -19.300781 6.039062 -19.765625 7.84375 -19.765625 C 9.664062 -19.765625 11.382812 -19.421875 13 -18.734375 L 12.5 -17.546875 C 10.882812 -18.222656 9.335938 -18.5625 7.859375 -18.5625 C 6.421875 -18.5625 5.273438 -18.226562 4.421875 -17.5625 C 3.566406 -16.894531 3.140625 -15.988281 3.140625 -14.84375 C 3.140625 -14.125 3.269531 -13.53125 3.53125 -13.0625 C 3.800781 -12.601562 4.234375 -12.191406 4.828125 -11.828125 C 5.421875 -11.460938 6.441406 -11.019531 7.890625 -10.5 C 9.410156 -9.976562 10.550781 -9.46875 11.3125 -8.96875 C 12.082031 -8.476562 12.640625 -7.921875 12.984375 -7.296875 C 13.335938 -6.671875 13.515625 -5.914062 13.515625 -5.03125 Z M 13.515625 -5.03125 "/></g></g></g><g fill="#951e38" fill-opacity="1"><g transform="translate(98.507295, 276.600275)"><g><path d="M 16.875 0 L 15.5 0 L 15.5 -9.578125 L 4.125 -9.578125 L 4.125 0 L 2.765625 0 L 2.765625 -19.484375 L 4.125 -19.484375 L 4.125 -10.84375 L 15.5 -10.84375 L 15.5 -19.484375 L 16.875 -19.484375 Z M 16.875 0 "/></g></g></g><g fill="#951e38" fill-opacity="1"><g transform="translate(118.137447, 276.600275)"><g/></g></g><g fill="#951e38" fill-opacity="1"><g transform="translate(125.227222, 276.600275)"><g><path d="M 1.640625 -4.9375 C 1.640625 -6.164062 1.960938 -7.210938 2.609375 -8.078125 C 3.265625 -8.941406 4.488281 -9.851562 6.28125 -10.8125 L 5.28125 -11.90625 C 4.6875 -12.53125 4.25 -13.144531 3.96875 -13.75 C 3.6875 -14.351562 3.546875 -14.984375 3.546875 -15.640625 C 3.546875 -16.910156 3.96875 -17.921875 4.8125 -18.671875 C 5.664062 -19.421875 6.804688 -19.796875 8.234375 -19.796875 C 9.609375 -19.796875 10.695312 -19.4375 11.5 -18.71875 C 12.3125 -18 12.71875 -17.003906 12.71875 -15.734375 C 12.71875 -14.796875 12.40625 -13.9375 11.78125 -13.15625 C 11.15625 -12.382812 10.03125 -11.519531 8.40625 -10.5625 L 14.4375 -4.484375 C 14.976562 -5.117188 15.4375 -5.8125 15.8125 -6.5625 C 16.195312 -7.320312 16.535156 -8.21875 16.828125 -9.25 L 18.09375 -9.25 C 17.539062 -7.0625 16.613281 -5.171875 15.3125 -3.578125 L 18.859375 0 L 17.0625 0 L 14.484375 -2.625 C 13.671875 -1.820312 12.941406 -1.234375 12.296875 -0.859375 C 11.660156 -0.492188 10.960938 -0.210938 10.203125 -0.015625 C 9.441406 0.171875 8.578125 0.265625 7.609375 0.265625 C 5.753906 0.265625 4.296875 -0.191406 3.234375 -1.109375 C 2.171875 -2.023438 1.640625 -3.300781 1.640625 -4.9375 Z M 7.703125 -0.9375 C 8.835938 -0.9375 9.878906 -1.128906 10.828125 -1.515625 C 11.773438 -1.898438 12.707031 -2.550781 13.625 -3.46875 L 7.1875 -9.9375 C 5.976562 -9.289062 5.101562 -8.742188 4.5625 -8.296875 C 4.03125 -7.847656 3.640625 -7.359375 3.390625 -6.828125 C 3.148438 -6.304688 3.03125 -5.695312 3.03125 -5 C 3.03125 -3.726562 3.441406 -2.734375 4.265625 -2.015625 C 5.085938 -1.296875 6.234375 -0.9375 7.703125 -0.9375 Z M 4.96875 -15.671875 C 4.96875 -14.972656 5.144531 -14.320312 5.5 -13.71875 C 5.851562 -13.125 6.53125 -12.351562 7.53125 -11.40625 C 8.945312 -12.164062 9.925781 -12.875 10.46875 -13.53125 C 11.019531 -14.1875 11.296875 -14.9375 11.296875 -15.78125 C 11.296875 -16.613281 11.019531 -17.289062 10.46875 -17.8125 C 9.925781 -18.332031 9.179688 -18.59375 8.234375 -18.59375 C 7.222656 -18.59375 6.425781 -18.332031 5.84375 -17.8125 C 5.257812 -17.300781 4.96875 -16.585938 4.96875 -15.671875 Z M 4.96875 -15.671875 "/></g></g></g><g fill="#951e38" fill-opacity="1"><g transform="translate(144.684122, 276.600275)"><g/></g></g><g fill="#951e38" fill-opacity="1"><g transform="translate(151.773897, 276.600275)"><g><path d="M 14.484375 -13.890625 C 14.484375 -12.003906 13.84375 -10.554688 12.5625 -9.546875 C 11.289062 -8.546875 9.476562 -8.046875 7.125 -8.046875 L 4.125 -8.046875 L 4.125 0 L 2.765625 0 L 2.765625 -19.484375 L 7.53125 -19.484375 C 12.164062 -19.484375 14.484375 -17.617188 14.484375 -13.890625 Z M 4.125 -9.21875 L 6.796875 -9.21875 C 8.992188 -9.21875 10.578125 -9.578125 11.546875 -10.296875 C 12.523438 -11.023438 13.015625 -12.203125 13.015625 -13.828125 C 13.015625 -15.335938 12.550781 -16.453125 11.625 -17.171875 C 10.707031 -17.898438 9.28125 -18.265625 7.34375 -18.265625 L 4.125 -18.265625 Z M 4.125 -9.21875 "/></g></g></g><g fill="#951e38" fill-opacity="1"><g transform="translate(167.739216, 276.600275)"><g><path d="M 11.328125 0 L 4.0625 -18 L 3.953125 -18 C 4.023438 -16.894531 4.0625 -15.765625 4.0625 -14.609375 L 4.0625 0 L 2.765625 0 L 2.765625 -19.484375 L 4.859375 -19.484375 L 11.765625 -2.34375 L 11.84375 -2.34375 L 18.75 -19.484375 L 20.8125 -19.484375 L 20.8125 0 L 19.4375 0 L 19.4375 -14.765625 C 19.4375 -15.796875 19.488281 -16.863281 19.59375 -17.96875 L 19.484375 -17.96875 L 12.203125 0 Z M 11.328125 0 "/></g></g></g><g fill="#951e38" fill-opacity="1"><g transform="translate(191.287402, 276.600275)"><g><path d="M 17.09375 -19.484375 L 17.09375 -6.875 C 17.09375 -4.632812 16.441406 -2.882812 15.140625 -1.625 C 13.835938 -0.363281 12.03125 0.265625 9.71875 0.265625 C 7.457031 0.265625 5.691406 -0.363281 4.421875 -1.625 C 3.160156 -2.894531 2.53125 -4.664062 2.53125 -6.9375 L 2.53125 -19.484375 L 3.90625 -19.484375 L 3.90625 -6.875 C 3.90625 -5 4.425781 -3.539062 5.46875 -2.5 C 6.507812 -1.457031 7.976562 -0.9375 9.875 -0.9375 C 11.726562 -0.9375 13.164062 -1.445312 14.1875 -2.46875 C 15.21875 -3.5 15.734375 -4.925781 15.734375 -6.75 L 15.734375 -19.484375 Z M 17.09375 -19.484375 "/></g></g></g><path stroke-linecap="butt" transform="matrix(0.75, 0, 0, 0.75, 53.250001, 236.122952)" fill="none" stroke-linejoin="miter" d="M -0.00000133767 0.997522 L 285.411476 0.997522 " stroke="#951e38" stroke-width="2" stroke-opacity="1" stroke-miterlimit="4"/></svg>