<svg xmlns="http://www.w3.org/2000/svg" xmlns:xlink="http://www.w3.org/1999/xlink" width="500" zoomAndPan="magnify" viewBox="0 0 375 194.87999" height="250" preserveAspectRatio="xMidYMid meet" version="1.0"><defs><g/><clipPath id="9e6b3c2719"><path d="M 9.246094 24.476562 L 366 24.476562 L 366 163 L 9.246094 163 Z M 9.246094 24.476562 " clip-rule="nonzero"/></clipPath><clipPath id="85d1ec1f9f"><path d="M 14.867188 24.476562 L 360.125 24.476562 C 361.617188 24.476562 363.046875 25.066406 364.097656 26.121094 C 365.152344 27.175781 365.746094 28.605469 365.746094 30.097656 L 365.746094 157.285156 C 365.746094 158.777344 365.152344 160.207031 364.097656 161.257812 C 363.046875 162.3125 361.617188 162.90625 360.125 162.90625 L 14.867188 162.90625 C 13.378906 162.90625 11.949219 162.3125 10.894531 161.257812 C 9.839844 160.207031 9.246094 158.777344 9.246094 157.285156 L 9.246094 30.097656 C 9.246094 28.605469 9.839844 27.175781 10.894531 26.121094 C 11.949219 25.066406 13.378906 24.476562 14.867188 24.476562 Z M 14.867188 24.476562 " clip-rule="nonzero"/></clipPath><clipPath id="f7dd8afbdf"><rect x="0" width="305" y="0" height="105"/></clipPath></defs><g clip-path="url(#9e6b3c2719)"><g clip-path="url(#85d1ec1f9f)"><path stroke-linecap="butt" transform="matrix(0.749538, 0, 0, 0.749538, 9.246606, 24.475801)" fill="none" stroke-linejoin="miter" d="M 7.498725 0.00101588 L 468.12598 0.00101588 C 470.116789 0.00101588 472.024213 0.787959 473.426117 2.195075 C 474.833234 3.602191 475.625388 5.509615 475.625388 7.500423 L 475.625388 177.188196 C 475.625388 179.179004 474.833234 181.086428 473.426117 182.488333 C 472.024213 183.895449 470.116789 184.687603 468.12598 184.687603 L 7.498725 184.687603 C 5.513128 184.687603 3.605704 183.895449 2.198587 182.488333 C 0.791471 181.086428 -0.000682772 179.179004 -0.000682772 177.188196 L -0.000682772 7.500423 C -0.000682772 5.509615 0.791471 3.602191 2.198587 2.195075 C 3.605704 0.787959 5.513128 0.00101588 7.498725 0.00101588 Z M 7.498725 0.00101588 " stroke="#951e38" stroke-width="4" stroke-opacity="1" stroke-miterlimit="4"/></g></g><g transform="matrix(1, 0, 0, 1, 40, 43)"><g clip-path="url(#f7dd8afbdf)"><g fill="#951e38" fill-opacity="1"><g transform="translate(0.322163, 49.502941)"><g><path d="M 2.046875 0 L 2.046875 -1.84375 C 4.460938 -2.019531 5.976562 -2.269531 6.59375 -2.59375 C 7.207031 -2.914062 7.515625 -3.640625 7.515625 -4.765625 L 7.515625 -31.140625 C 7.515625 -32.296875 7.003906 -33.128906 5.984375 -33.640625 C 4.972656 -34.148438 3.660156 -34.46875 2.046875 -34.59375 L 2.046875 -36.40625 L 18.453125 -36.40625 L 18.453125 -34.59375 C 16.140625 -34.414062 14.648438 -34.109375 13.984375 -33.671875 C 13.316406 -33.234375 12.984375 -32.488281 12.984375 -31.4375 L 12.984375 -5.109375 C 12.984375 -4.210938 13.273438 -3.492188 13.859375 -2.953125 C 14.441406 -2.421875 15.972656 -2.050781 18.453125 -1.84375 L 18.453125 0 Z M 2.046875 0 "/></g></g></g><g fill="#951e38" fill-opacity="1"><g transform="translate(25.07582, 49.502941)"><g><path d="M 36.09375 -34.59375 C 33.613281 -34.332031 31.957031 -33.378906 31.125 -31.734375 C 30.300781 -30.097656 26.007812 -19.363281 18.25 0.46875 L 16.140625 0.46875 L 4.234375 -31.296875 C 3.359375 -33.296875 1.613281 -34.394531 -1 -34.59375 L -1 -36.40625 L 14.09375 -36.40625 L 14.09375 -34.59375 C 11.039062 -34.382812 9.515625 -33.921875 9.515625 -33.203125 C 9.515625 -32.703125 12.644531 -24.15625 18.90625 -7.5625 C 21.082031 -12.800781 23.019531 -17.632812 24.71875 -22.0625 C 26.425781 -26.488281 27.394531 -29.125 27.625 -29.96875 C 27.851562 -30.820312 27.96875 -31.609375 27.96875 -32.328125 C 27.96875 -33.492188 26.160156 -34.25 22.546875 -34.59375 L 22.546875 -36.40625 L 36.09375 -36.40625 Z M 36.09375 -34.59375 "/></g></g></g><g fill="#951e38" fill-opacity="1"><g transform="translate(64.374722, 49.502941)"><g><path d="M 33.734375 -34.59375 C 32.765625 -34.488281 31.835938 -34.175781 30.953125 -33.65625 C 30.078125 -33.132812 29.054688 -32.0625 27.890625 -30.4375 C 26.722656 -28.8125 25.066406 -26.15625 22.921875 -22.46875 C 20.773438 -18.78125 19.535156 -16.535156 19.203125 -15.734375 C 18.867188 -14.941406 18.703125 -13.796875 18.703125 -12.296875 L 18.703125 -5.359375 C 18.703125 -4.390625 19.03125 -3.617188 19.6875 -3.046875 C 20.351562 -2.484375 21.96875 -2.082031 24.53125 -1.84375 L 24.53125 0 L 7.515625 0 L 7.515625 -1.84375 C 10.035156 -2.019531 11.617188 -2.296875 12.265625 -2.671875 C 12.910156 -3.046875 13.234375 -3.859375 13.234375 -5.109375 L 13.234375 -13.9375 C 13.234375 -14.507812 11.785156 -17.503906 8.890625 -22.921875 C 6.003906 -28.335938 4.09375 -31.597656 3.15625 -32.703125 C 2.226562 -33.804688 0.804688 -34.4375 -1.109375 -34.59375 L -1.109375 -36.40625 L 14.390625 -36.40625 L 14.390625 -34.59375 C 11.210938 -34.4375 9.625 -34.023438 9.625 -33.359375 C 9.625 -32.878906 12.28125 -27.820312 17.59375 -18.1875 C 23.144531 -27.082031 25.921875 -31.914062 25.921875 -32.6875 C 25.921875 -33.195312 25.613281 -33.601562 25 -33.90625 C 24.394531 -34.207031 23.082031 -34.4375 21.0625 -34.59375 L 21.0625 -36.40625 L 33.734375 -36.40625 Z M 33.734375 -34.59375 "/></g></g></g><g fill="#951e38" fill-opacity="1"><g transform="translate(100.954407, 49.502941)"><g/></g></g><g fill="#951e38" fill-opacity="1"><g transform="translate(117.883901, 49.502941)"><g><path d="M 2.40625 0 L 2.40625 -1.84375 C 4.457031 -2 5.804688 -2.289062 6.453125 -2.71875 C 7.097656 -3.144531 7.421875 -3.890625 7.421875 -4.953125 L 7.421875 -31.09375 C 7.421875 -33.164062 5.816406 -34.332031 2.609375 -34.59375 L 2.609375 -36.40625 L 19.453125 -36.40625 C 22.492188 -36.40625 25.007812 -35.71875 27 -34.34375 C 29 -32.96875 30 -31.015625 30 -28.484375 C 30 -23.953125 27.132812 -21.007812 21.40625 -19.65625 L 21.40625 -19.453125 C 28.46875 -18.390625 32 -15.195312 32 -9.875 C 32 -6.894531 30.804688 -4.503906 28.421875 -2.703125 C 26.035156 -0.898438 23.128906 0 19.703125 0 Z M 12.875 -34.25 L 12.875 -20.296875 L 16.140625 -20.296875 C 21.285156 -20.296875 23.859375 -22.851562 23.859375 -27.96875 C 23.859375 -32.226562 21.582031 -34.359375 17.03125 -34.359375 C 15.5 -34.359375 14.113281 -34.320312 12.875 -34.25 Z M 12.875 -18.140625 L 12.875 -5.3125 C 12.875 -3.132812 14.519531 -2.046875 17.8125 -2.046875 C 23.0625 -2.046875 25.6875 -4.972656 25.6875 -10.828125 C 25.6875 -13.085938 24.941406 -14.890625 23.453125 -16.234375 C 21.960938 -17.578125 19.925781 -18.25 17.34375 -18.25 C 15.34375 -18.25 13.851562 -18.210938 12.875 -18.140625 Z M 12.875 -18.140625 "/></g></g></g><g fill="#951e38" fill-opacity="1"><g transform="translate(156.490173, 49.502941)"><g><path d="M 24.328125 -5.921875 C 21.960938 -1.515625 18.5 0.6875 13.9375 0.6875 C 10.132812 0.6875 7.164062 -0.554688 5.03125 -3.046875 C 2.90625 -5.535156 1.84375 -8.8125 1.84375 -12.875 C 1.84375 -16.46875 2.925781 -19.554688 5.09375 -22.140625 C 7.257812 -24.722656 10.023438 -26.015625 13.390625 -26.015625 C 16.722656 -26.015625 19.273438 -25.039062 21.046875 -23.09375 C 22.816406 -21.15625 23.703125 -18.503906 23.703125 -15.140625 L 23.703125 -13.4375 L 6.921875 -13.4375 C 6.921875 -9.851562 7.648438 -7.078125 9.109375 -5.109375 C 10.578125 -3.140625 12.671875 -2.15625 15.390625 -2.15625 C 16.898438 -2.15625 18.1875 -2.488281 19.25 -3.15625 C 20.320312 -3.820312 21.421875 -5.113281 22.546875 -7.03125 Z M 18.65625 -15.59375 C 18.65625 -21.238281 16.882812 -24.0625 13.34375 -24.0625 C 11.5625 -24.0625 10.070312 -23.304688 8.875 -21.796875 C 7.675781 -20.296875 7.023438 -18.226562 6.921875 -15.59375 Z M 18.65625 -15.59375 "/></g></g></g><g fill="#951e38" fill-opacity="1"><g transform="translate(186.117897, 49.502941)"><g><path d="M 25.8125 -0.46875 C 24.03125 0.1875 22.644531 0.515625 21.65625 0.515625 C 18.96875 0.515625 17.382812 -0.707031 16.90625 -3.15625 L 16.75 -3.15625 C 14.476562 -0.625 11.75 0.640625 8.5625 0.640625 C 6.664062 0.640625 5.101562 0.0625 3.875 -1.09375 C 2.65625 -2.25 2.046875 -3.773438 2.046875 -5.671875 C 2.046875 -7.796875 2.628906 -9.414062 3.796875 -10.53125 C 4.960938 -11.65625 6.960938 -12.6875 9.796875 -13.625 C 13.847656 -14.957031 16.1875 -15.8125 16.8125 -16.1875 L 16.8125 -18.703125 C 16.8125 -20.171875 16.40625 -21.441406 15.59375 -22.515625 C 14.78125 -23.585938 13.578125 -24.125 11.984375 -24.125 C 10.335938 -24.125 9.128906 -23.71875 8.359375 -22.90625 C 8.359375 -22.476562 8.4375 -21.976562 8.59375 -21.40625 C 8.75 -20.820312 8.828125 -20.203125 8.828125 -19.546875 C 8.828125 -18.878906 8.53125 -18.316406 7.9375 -17.859375 C 7.351562 -17.410156 6.628906 -17.1875 5.765625 -17.1875 C 4.128906 -17.1875 3.3125 -18.160156 3.3125 -20.109375 C 3.3125 -21.640625 4.269531 -23.003906 6.1875 -24.203125 C 8.101562 -25.410156 10.140625 -26.015625 12.296875 -26.015625 C 15.796875 -26.015625 18.226562 -25.328125 19.59375 -23.953125 C 20.96875 -22.578125 21.65625 -20.476562 21.65625 -17.65625 L 21.5 -5 C 21.5 -4.082031 21.71875 -3.398438 22.15625 -2.953125 C 22.59375 -2.503906 22.984375 -2.25 23.328125 -2.1875 C 23.679688 -2.132812 24.507812 -2.109375 25.8125 -2.109375 Z M 16.859375 -14.03125 C 13.128906 -12.9375 10.585938 -11.804688 9.234375 -10.640625 C 7.878906 -9.484375 7.203125 -8.039062 7.203125 -6.3125 C 7.203125 -3.570312 8.515625 -2.203125 11.140625 -2.203125 C 13.148438 -2.203125 15.003906 -3.1875 16.703125 -5.15625 Z M 16.859375 -14.03125 "/></g></g></g><g fill="#951e38" fill-opacity="1"><g transform="translate(216.848701, 49.502941)"><g><path d="M 20.75 0.109375 L 20.34375 -0.25 L 20.34375 -3.46875 L 20.171875 -3.46875 C 17.722656 -0.726562 14.925781 0.640625 11.78125 0.640625 C 7.175781 0.640625 4.875 -2.210938 4.875 -7.921875 L 4.875 -20.015625 C 4.875 -22.117188 3.546875 -23.222656 0.890625 -23.328125 L 0.890625 -25.015625 L 9.359375 -25.578125 L 9.71875 -25.21875 L 9.71875 -7.671875 C 9.71875 -5.960938 10.109375 -4.613281 10.890625 -3.625 C 11.679688 -2.644531 12.695312 -2.15625 13.9375 -2.15625 C 16.613281 -2.15625 18.734375 -3.394531 20.296875 -5.875 L 20.296875 -20.21875 C 20.296875 -20.9375 20.070312 -21.582031 19.625 -22.15625 C 19.1875 -22.726562 18.726562 -23.046875 18.25 -23.109375 C 17.78125 -23.179688 16.863281 -23.253906 15.5 -23.328125 L 15.5 -25.015625 L 24.703125 -25.578125 L 25.125 -25.21875 L 25.125 -5.15625 C 25.125 -3.132812 26.394531 -2.132812 28.9375 -2.15625 L 28.9375 -0.46875 Z M 20.75 0.109375 "/></g></g></g><g fill="#951e38" fill-opacity="1"><g transform="translate(251.324841, 49.502941)"><g><path d="M 17.5 -1.109375 C 15.03125 -0.0234375 12.753906 0.515625 10.671875 0.515625 C 6.804688 0.515625 4.875 -1.507812 4.875 -5.5625 L 4.875 -22.765625 L 0.3125 -22.765625 L 0.3125 -25.171875 L 5 -25.171875 L 5 -33.046875 L 9.671875 -33.046875 L 9.671875 -25.171875 L 16.90625 -25.171875 L 16.90625 -22.765625 L 9.71875 -22.765625 L 9.71875 -8.625 C 9.71875 -6.28125 9.984375 -4.679688 10.515625 -3.828125 C 11.046875 -2.984375 12.148438 -2.5625 13.828125 -2.5625 C 15.285156 -2.5625 16.507812 -2.707031 17.5 -3 Z M 17.5 -1.109375 "/></g></g></g><g fill="#951e38" fill-opacity="1"><g transform="translate(273.718422, 49.502941)"><g><path d="M 26.625 -23.703125 C 26.050781 -23.617188 25.382812 -23.320312 24.625 -22.8125 C 23.875 -22.300781 23.378906 -21.84375 23.140625 -21.4375 C 22.898438 -21.03125 22.140625 -19.296875 20.859375 -16.234375 L 17.3125 -7.78125 C 14.90625 -1.945312 13.109375 2.144531 11.921875 4.5 C 10.742188 6.851562 9.492188 8.585938 8.171875 9.703125 C 6.859375 10.828125 5.535156 11.390625 4.203125 11.390625 C 2.953125 11.390625 1.929688 11.09375 1.140625 10.5 C 0.347656 9.914062 -0.046875 9.171875 -0.046875 8.265625 C -0.046875 7.441406 0.164062 6.75 0.59375 6.1875 C 1.03125 5.632812 1.617188 5.359375 2.359375 5.359375 C 3.828125 5.359375 5.160156 6.445312 6.359375 8.625 C 7.109375 8.226562 8.066406 7.125 9.234375 5.3125 C 10.410156 3.5 11.34375 1.691406 12.03125 -0.109375 L 3.40625 -21.140625 C 2.84375 -22.390625 1.550781 -23.210938 -0.46875 -23.609375 L -0.46875 -25.265625 L 11.03125 -25.265625 L 11.03125 -23.484375 C 9.101562 -23.359375 8.140625 -22.988281 8.140625 -22.375 C 8.140625 -22.34375 8.179688 -22.222656 8.265625 -22.015625 L 8.515625 -21.21875 L 14.59375 -6.265625 L 19.75 -18.859375 C 19.820312 -19.066406 19.914062 -19.296875 20.03125 -19.546875 C 20.445312 -20.472656 20.65625 -21.191406 20.65625 -21.703125 C 20.65625 -22.578125 19.515625 -23.226562 17.234375 -23.65625 L 17.234375 -25.265625 L 26.625 -25.265625 Z M 26.625 -23.703125 "/></g></g></g><g fill="#951e38" fill-opacity="1"><g transform="translate(0.322163, 95.638043)"><g><path d="M 2.875 0 L 2.875 -20.328125 L 4.296875 -20.328125 L 4.296875 -1.328125 L 13.984375 -1.328125 L 13.984375 0 Z M 2.875 0 "/></g></g></g><g fill="#951e38" fill-opacity="1"><g transform="translate(14.925158, 95.638043)"><g><path d="M 12.65625 -7.171875 L 4.40625 -7.171875 L 1.578125 0 L 0 0 L 8.171875 -20.40625 L 9.078125 -20.40625 L 17.078125 0 L 15.484375 0 Z M 4.921875 -8.453125 L 12.1875 -8.453125 L 9.421875 -15.78125 C 9.191406 -16.351562 8.914062 -17.148438 8.59375 -18.171875 C 8.34375 -17.273438 8.066406 -16.46875 7.765625 -15.75 Z M 4.921875 -8.453125 "/></g></g></g><g fill="#951e38" fill-opacity="1"><g transform="translate(32.001351, 95.638043)"><g><path d="M 14.09375 -5.234375 C 14.09375 -3.546875 13.46875 -2.203125 12.21875 -1.203125 C 10.976562 -0.210938 9.320312 0.28125 7.25 0.28125 C 4.769531 0.28125 2.867188 0.00390625 1.546875 -0.546875 L 1.546875 -1.953125 C 3.003906 -1.335938 4.867188 -1.03125 7.140625 -1.03125 C 8.804688 -1.03125 10.128906 -1.410156 11.109375 -2.171875 C 12.085938 -2.941406 12.578125 -3.945312 12.578125 -5.1875 C 12.578125 -5.957031 12.414062 -6.59375 12.09375 -7.09375 C 11.769531 -7.601562 11.238281 -8.066406 10.5 -8.484375 C 9.769531 -8.898438 8.695312 -9.347656 7.28125 -9.828125 C 5.207031 -10.535156 3.773438 -11.304688 2.984375 -12.140625 C 2.191406 -12.972656 1.796875 -14.078125 1.796875 -15.453125 C 1.796875 -16.972656 2.390625 -18.210938 3.578125 -19.171875 C 4.765625 -20.128906 6.296875 -20.609375 8.171875 -20.609375 C 10.078125 -20.609375 11.867188 -20.25 13.546875 -19.53125 L 13.03125 -18.3125 C 11.351562 -19.007812 9.742188 -19.359375 8.203125 -19.359375 C 6.703125 -19.359375 5.503906 -19.007812 4.609375 -18.3125 C 3.722656 -17.625 3.28125 -16.679688 3.28125 -15.484375 C 3.28125 -14.734375 3.414062 -14.113281 3.6875 -13.625 C 3.957031 -13.144531 4.40625 -12.710938 5.03125 -12.328125 C 5.65625 -11.953125 6.722656 -11.492188 8.234375 -10.953125 C 9.816406 -10.410156 11.003906 -9.878906 11.796875 -9.359375 C 12.597656 -8.847656 13.179688 -8.265625 13.546875 -7.609375 C 13.910156 -6.953125 14.09375 -6.160156 14.09375 -5.234375 Z M 14.09375 -5.234375 "/></g></g></g><g fill="#951e38" fill-opacity="1"><g transform="translate(47.507475, 95.638043)"><g><path d="M 17.59375 0 L 16.171875 0 L 16.171875 -10 L 4.296875 -10 L 4.296875 0 L 2.875 0 L 2.875 -20.328125 L 4.296875 -20.328125 L 4.296875 -11.296875 L 16.171875 -11.296875 L 16.171875 -20.328125 L 17.59375 -20.328125 Z M 17.59375 0 "/></g></g></g><g fill="#951e38" fill-opacity="1"><g transform="translate(67.973896, 95.638043)"><g/></g></g><g fill="#951e38" fill-opacity="1"><g transform="translate(75.365703, 95.638043)"><g><path d="M 1.703125 -5.15625 C 1.703125 -6.4375 2.039062 -7.523438 2.71875 -8.421875 C 3.40625 -9.316406 4.679688 -10.269531 6.546875 -11.28125 L 5.5 -12.40625 C 4.894531 -13.070312 4.441406 -13.71875 4.140625 -14.34375 C 3.847656 -14.976562 3.703125 -15.632812 3.703125 -16.3125 C 3.703125 -17.644531 4.144531 -18.695312 5.03125 -19.46875 C 5.914062 -20.25 7.101562 -20.640625 8.59375 -20.640625 C 10.03125 -20.640625 11.164062 -20.265625 12 -19.515625 C 12.84375 -18.765625 13.265625 -17.726562 13.265625 -16.40625 C 13.265625 -15.425781 12.9375 -14.53125 12.28125 -13.71875 C 11.632812 -12.914062 10.460938 -12.015625 8.765625 -11.015625 L 15.046875 -4.671875 C 15.617188 -5.335938 16.101562 -6.0625 16.5 -6.84375 C 16.894531 -7.632812 17.242188 -8.566406 17.546875 -9.640625 L 18.875 -9.640625 C 18.289062 -7.367188 17.320312 -5.394531 15.96875 -3.71875 L 19.671875 0 L 17.796875 0 L 15.109375 -2.734375 C 14.253906 -1.898438 13.492188 -1.289062 12.828125 -0.90625 C 12.160156 -0.519531 11.429688 -0.222656 10.640625 -0.015625 C 9.847656 0.179688 8.945312 0.28125 7.9375 0.28125 C 6 0.28125 4.472656 -0.191406 3.359375 -1.140625 C 2.253906 -2.097656 1.703125 -3.4375 1.703125 -5.15625 Z M 8.03125 -0.96875 C 9.21875 -0.96875 10.304688 -1.171875 11.296875 -1.578125 C 12.285156 -1.984375 13.253906 -2.660156 14.203125 -3.609375 L 7.5 -10.359375 C 6.238281 -9.691406 5.328125 -9.125 4.765625 -8.65625 C 4.203125 -8.1875 3.789062 -7.675781 3.53125 -7.125 C 3.28125 -6.582031 3.15625 -5.945312 3.15625 -5.21875 C 3.15625 -3.882812 3.582031 -2.84375 4.4375 -2.09375 C 5.300781 -1.34375 6.5 -0.96875 8.03125 -0.96875 Z M 5.1875 -16.34375 C 5.1875 -15.613281 5.367188 -14.9375 5.734375 -14.3125 C 6.109375 -13.695312 6.816406 -12.894531 7.859375 -11.90625 C 9.328125 -12.6875 10.347656 -13.421875 10.921875 -14.109375 C 11.492188 -14.796875 11.78125 -15.578125 11.78125 -16.453125 C 11.78125 -17.328125 11.492188 -18.035156 10.921875 -18.578125 C 10.347656 -19.117188 9.570312 -19.390625 8.59375 -19.390625 C 7.53125 -19.390625 6.695312 -19.117188 6.09375 -18.578125 C 5.488281 -18.046875 5.1875 -17.300781 5.1875 -16.34375 Z M 5.1875 -16.34375 "/></g></g></g><g fill="#951e38" fill-opacity="1"><g transform="translate(95.651491, 95.638043)"><g/></g></g><g fill="#951e38" fill-opacity="1"><g transform="translate(103.043299, 95.638043)"><g><path d="M 15.109375 -14.484375 C 15.109375 -12.515625 14.441406 -11.003906 13.109375 -9.953125 C 11.773438 -8.910156 9.882812 -8.390625 7.4375 -8.390625 L 4.296875 -8.390625 L 4.296875 0 L 2.875 0 L 2.875 -20.328125 L 7.859375 -20.328125 C 12.691406 -20.328125 15.109375 -18.378906 15.109375 -14.484375 Z M 4.296875 -9.625 L 7.09375 -9.625 C 9.375 -9.625 11.023438 -10 12.046875 -10.75 C 13.066406 -11.507812 13.578125 -12.734375 13.578125 -14.421875 C 13.578125 -15.992188 13.09375 -17.15625 12.125 -17.90625 C 11.164062 -18.664062 9.675781 -19.046875 7.65625 -19.046875 L 4.296875 -19.046875 Z M 4.296875 -9.625 "/></g></g></g><g fill="#951e38" fill-opacity="1"><g transform="translate(119.688761, 95.638043)"><g><path d="M 11.8125 0 L 4.234375 -18.765625 L 4.125 -18.765625 C 4.195312 -17.617188 4.234375 -16.441406 4.234375 -15.234375 L 4.234375 0 L 2.875 0 L 2.875 -20.328125 L 5.078125 -20.328125 L 12.28125 -2.453125 L 12.359375 -2.453125 L 19.5625 -20.328125 L 21.703125 -20.328125 L 21.703125 0 L 20.265625 0 L 20.265625 -15.40625 C 20.265625 -16.476562 20.320312 -17.585938 20.4375 -18.734375 L 20.328125 -18.734375 L 12.71875 0 Z M 11.8125 0 "/></g></g></g><g fill="#951e38" fill-opacity="1"><g transform="translate(144.240129, 95.638043)"><g><path d="M 17.828125 -20.328125 L 17.828125 -7.171875 C 17.828125 -4.835938 17.148438 -3.007812 15.796875 -1.6875 C 14.441406 -0.375 12.554688 0.28125 10.140625 0.28125 C 7.785156 0.28125 5.945312 -0.378906 4.625 -1.703125 C 3.300781 -3.023438 2.640625 -4.867188 2.640625 -7.234375 L 2.640625 -20.328125 L 4.078125 -20.328125 L 4.078125 -7.171875 C 4.078125 -5.210938 4.617188 -3.6875 5.703125 -2.59375 C 6.785156 -1.507812 8.316406 -0.96875 10.296875 -0.96875 C 12.234375 -0.96875 13.734375 -1.503906 14.796875 -2.578125 C 15.867188 -3.648438 16.40625 -5.132812 16.40625 -7.03125 L 16.40625 -20.328125 Z M 17.828125 -20.328125 "/></g></g></g></g></g><path stroke-linecap="butt" transform="matrix(0.749538, 0, 0, 0.749538, 40.322163, 103.581229)" fill="none" stroke-linejoin="miter" d="M -0.00246932 1.501994 L 359.031008 1.501994 " stroke="#951e38" stroke-width="3" stroke-opacity="1" stroke-miterlimit="4"/></svg>